Patient4_TMGait_0pt7_01_right_43_GRF.mot
version=1
nRows=58
nColumns=19
inDegrees=no
endheader
time	F1x	F1y	F1z	M1x	M1y	M1z	F2x	F2y	F2z	M2x	M2y	M2z	EC1x	EC1y	EC1z	EC2x	EC2y	EC2z
49.24	11.475	820.4186	52.958	-290.8465	-50.5806	832.0993	25.7275	-22.9297	-13.8985	-1.517	1.2891	-33.6143	-0.0592	0.0182	-0.0073	-0.0462	0.0165	0.9585
49.2519	11.6386	806.7957	56.5374	-285.2358	-53.3319	820.3493	16.9629	-14.0415	-9.2827	-0.48159	0.97176	-20.9201	-0.0592	0.0182	-0.0073	-0.0462	0.0165	0.9585
49.2637	12.1255	790.8647	59.0583	-278.8148	-54.911	804.892	9.6122	-6.4741	-5.3915	0.40854	0.69075	-10.1514	-0.0592	0.0182	-0.0073	-0.0462	0.0165	0.9585
49.2756	12.873	773.3673	60.5102	-271.8839	-55.3579	786.4562	4.0144	-0.61062	-2.4343	1.1146	0.47857	-1.8237	-0.0592	0.0182	-0.0073	-0.0462	0.0165	0.9585
49.2874	13.8729	755.215	60.9392	-264.7909	-54.7532	766.1245	0.1796	3.5038	-0.40315	1.6229	0.33376	3.9905	-0.0592	0.0182	-0.0073	-0.0462	0.0165	0.9585
49.2993	15.0576	737.403	60.6679	-257.8889	-53.4392	745.177	-2.217	6.1348	0.84383	1.9628	0.26069	7.7063	-0.0592	0.0182	-0.0073	-0.0462	0.0165	0.9585
49.3111	16.4062	720.8399	59.9067	-251.5038	-51.6387	724.7435	-3.4759	7.5483	1.4858	2.1502	0.24173	9.6973	-0.0592	0.0182	-0.0073	-0.0462	0.0165	0.9585
49.323	17.903	706.3464	58.9511	-245.9107	-49.6469	705.8714	-4.0121	8.0632	1.7065	2.2083	0.28329	10.4399	-0.0592	0.0182	-0.0073	-0.0462	0.0165	0.9585
49.3349	19.6051	694.5391	57.9712	-241.3188	-47.6153	689.2924	-4.0744	7.8827	1.66	2.1358	0.37014	10.2132	-0.0592	0.0182	-0.0073	-0.0462	0.0165	0.9585
49.3467	21.551	685.8507	57.1419	-237.8654	-45.6909	675.5196	-3.933	7.1791	1.4642	1.9288	0.50567	9.2978	-0.0592	0.0182	-0.0073	-0.0462	0.0165	0.9585
49.3586	23.8856	680.545	56.5763	-235.6272	-43.9309	664.8306	-3.6896	5.978	1.1935	1.5554	0.67888	7.7347	-0.0592	0.0182	-0.0073	-0.0462	0.0165	0.9585
49.3704	26.7178	678.7302	56.3397	-234.6206	-42.3468	657.3306	-3.4589	4.3044	0.90668	0.98988	0.87484	5.6	-0.0592	0.0182	-0.0073	-0.0462	0.0165	0.9585
49.3823	30.1768	680.4019	56.5017	-234.8194	-40.9485	652.9744	-3.2059	2.1134	0.64067	0.20206	1.0473	2.8444	-0.0592	0.0182	-0.0073	-0.0462	0.0165	0.9585
49.3941	34.329	685.4515	57.0582	-236.1602	-39.6942	651.6506	-2.9269	-0.55418	0.42972	-0.80208	1.145	-0.46487	-0.0592	0.0182	-0.0073	-0.0462	0.0165	0.9585
49.406	39.1765	693.6058	58.0543	-238.5227	-38.6112	653.0974	-2.4996	-3.5629	0.30113	-1.9678	1.0822	-4.188	-0.0592	0.0182	-0.0073	-0.0462	0.0165	0.9585
49.4179	44.6078	704.4421	59.4383	-241.7342	-37.6706	656.9579	-1.824	-6.5394	0.31062	-3.1413	0.74245	-7.8552	-0.0592	0.0182	-0.0073	-0.0462	0.0165	0.9585
49.4297	50.4665	717.2935	61.2023	-245.5416	-36.9063	662.6899	-0.73678	-8.8272	0.50766	-4.0403	0.0024224	-10.6887	-0.0592	0.0182	-0.0073	-0.0462	0.0165	0.9585
49.4416	56.4463	731.2798	63.2291	-249.6252	-36.3007	669.6011	0.87811	-9.3115	0.96749	-4.1975	-1.2703	-11.344	-0.0592	0.0182	-0.0073	-0.0462	0.0165	0.9585
49.4534	62.1897	745.2816	65.4432	-253.594	-35.9051	676.8066	3.1101	-6.4171	1.7578	-2.9483	-3.1829	-7.9341	-0.0592	0.0182	-0.0073	-0.0462	0.0165	0.9585
49.4653	67.3068	758.0816	67.6719	-257.0394	-35.6983	683.3587	5.92	1.9926	2.9247	0.59408	-5.756	2.114	-0.0592	0.0182	-0.0073	-0.0462	0.0165	0.9585
49.4771	71.4888	768.3856	69.7239	-259.5487	-35.6271	688.1806	9.0773	18.4289	4.4662	7.4701	-8.87	21.8252	-0.0592	0.0182	-0.0073	-0.0462	0.0165	0.9585
49.489	74.5437	774.8965	71.3103	-260.7247	-35.5237	690.1849	12.047	45.5001	6.2896	18.7471	-12.1716	54.3611	-0.0592	0.0182	-0.0073	-0.0462	0.0165	0.9585
49.5009	76.4609	776.1634	72.1201	-260.1402	-35.1479	688.0794	13.8878	85.2614	8.1584	35.2503	-14.9675	102.2148	-0.0592	0.0182	-0.0073	-0.0462	0.0165	0.9585
49.5127	77.3009	770.6032	71.8482	-257.3392	-34.2413	680.4453	13.1172	138.2779	9.6344	57.1727	-16.1144	166.0948	-0.0592	0.0182	-0.0073	-0.0462	0.0165	0.9585
49.5246	77.2121	756.5099	70.2099	-251.8372	-32.5338	665.7186	7.97	202.5987	10.1237	83.6497	-14.1827	243.7216	-0.0592	0.0182	-0.0073	-0.0462	0.0165	0.9585
49.5364	76.2534	732.2508	67.0324	-243.1596	-29.8931	642.445	-2.1029	273.264	8.7922	112.5515	-7.9691	329.146	-0.0592	0.0182	-0.0073	-0.0462	0.0165	0.9585
49.5483	74.3556	696.5224	62.2786	-230.9165	-26.331	609.4505	-15.3212	342.6154	4.6602	140.6457	2.8815	413.0186	-0.0592	0.0182	-0.0073	-0.0462	0.0165	0.9585
49.5601	71.3266	648.8205	56.1687	-214.9392	-22.1192	566.3387	-28.8581	403.3195	-2.4717	164.9176	17.3005	486.1472	-0.0592	0.0182	-0.0073	-0.0462	0.0165	0.9585
49.572	66.9456	589.9053	49.085	-195.435	-17.6449	513.8093	-40.6402	452.4787	-11.4905	184.2036	33.0589	544.7091	-0.0592	0.0182	-0.0073	-0.0462	0.0165	0.9585
49.5839	61.0823	521.8073	41.5722	-173.0044	-13.3918	453.6708	-49.4742	491.0059	-21.147	198.9631	48.1663	589.5813	-0.0592	0.0182	-0.0073	-0.0462	0.0165	0.9585
49.5957	53.7824	447.5927	34.1751	-148.5827	-9.7713	388.5975	-54.9936	521.5929	-30.1935	210.4038	61.0113	623.9799	-0.0592	0.0182	-0.0073	-0.0462	0.0165	0.9585
49.6076	45.2331	370.9907	27.2949	-123.3377	-7.0339	321.8046	-57.2303	546.9359	-37.6829	219.739	70.5318	651.1422	-0.0592	0.0182	-0.0073	-0.0462	0.0165	0.9585
49.6194	35.7869	295.9771	21.2172	-98.547	-5.2775	256.6854	-56.6066	569.1307	-43.2088	227.8899	76.4423	673.6301	-0.0592	0.0182	-0.0073	-0.0462	0.0165	0.9585
49.6313	26.0912	226.3705	16.0574	-75.4644	-4.3683	196.464	-53.6238	589.5996	-46.883	235.4487	79.1242	693.1981	-0.0592	0.0182	-0.0073	-0.0462	0.0165	0.9585
49.6431	16.9621	165.1758	11.8848	-55.1021	-4.0745	143.6406	-48.9502	609.0707	-49.3014	242.6729	79.5511	710.8775	-0.0592	0.0182	-0.0073	-0.0462	0.0165	0.9585
49.655	9.1925	114.1422	8.6081	-38.0717	-4.0466	99.6163	-43.2535	627.5696	-51.1448	249.5215	78.8076	726.8832	-0.0592	0.0182	-0.0073	-0.0462	0.0165	0.9585
49.6669	3.1941	73.6664	6.0976	-24.5412	-4.0355	64.6926	-37.2924	644.8222	-53.089	255.8235	77.9736	741.133	-0.0592	0.0182	-0.0073	-0.0462	0.0165	0.9585
49.6787	-0.91109	43.2021	4.1415	-14.3581	-3.8246	38.3625	-31.7399	660.6853	-55.4654	261.4851	77.7246	753.6421	-0.0592	0.0182	-0.0073	-0.0462	0.0165	0.9585
49.6906	-3.2504	21.6408	2.6357	-7.1609	-3.3745	19.6861	-27.1293	675.4253	-58.2918	266.5996	78.3168	764.8748	-0.0592	0.0182	-0.0073	-0.0462	0.0165	0.9585
49.7024	-4.0827	7.5538	1.4808	-2.4741	-2.7022	7.4189	-23.7225	689.4782	-61.2363	271.3642	79.5211	775.425	-0.0592	0.0182	-0.0073	-0.0462	0.0165	0.9585
49.7143	-3.9844	-0.57432	0.68919	0.21995	-2.0142	0.2868	-21.5886	703.1354	-63.9127	275.9324	80.9552	785.6974	-0.0592	0.0182	-0.0073	-0.0462	0.0165	0.9585
49.7261	-3.3792	-4.3839	0.19951	1.4707	-1.4077	-3.1237	-20.6208	716.3419	-66.0272	280.3227	82.2626	795.6502	-0.0592	0.0182	-0.0073	-0.0462	0.0165	0.9585
49.738	-2.6193	-5.3431	-0.050331	1.7738	-0.9449	-4.0387	-20.5958	728.7863	-67.499	284.4355	83.2678	804.9294	-0.0592	0.0182	-0.0073	-0.0462	0.0165	0.9585
49.7499	-1.8532	-4.66	-0.14279	1.5301	-0.61051	-3.5311	-21.2478	740.0467	-68.3697	288.1224	83.9124	813.0477	-0.0592	0.0182	-0.0073	-0.0462	0.0165	0.9585
49.7617	-1.2228	-3.1913	-0.14075	1.027	-0.39655	-2.3121	-22.314	749.7431	-68.7559	291.2471	84.22	819.5568	-0.0592	0.0182	-0.0073	-0.0462	0.0165	0.9585
49.7736	-0.72024	-1.5171	-0.083283	0.45566	-0.27455	-0.91093	-23.5578	757.6289	-68.7534	293.7301	84.2038	824.1533	-0.0592	0.0182	-0.0073	-0.0462	0.0165	0.9585
49.7854	-0.39315	0.039741	-0.016423	-0.073755	-0.21417	0.43912	-24.7311	763.6199	-68.4044	295.56	83.8225	826.7102	-0.0592	0.0182	-0.0073	-0.0462	0.0165	0.9585
49.7973	-0.16849	1.311	0.052462	-0.50536	-0.19126	1.5634	-25.6148	767.7416	-67.7346	296.7634	83.029	827.2307	-0.0592	0.0182	-0.0073	-0.0462	0.0165	0.9585
49.8091	-0.062766	2.2848	0.094303	-0.83067	-0.17958	2.4729	-26.0271	769.9804	-66.7842	297.3508	81.7977	825.6616	-0.0592	0.0182	-0.0073	-0.0462	0.0165	0.9585
49.821	-0.00014319	2.9692	0.12463	-1.0545	-0.17273	3.1295	-25.8328	770.3213	-65.6322	297.3246	80.1575	821.9609	-0.0592	0.0182	-0.0073	-0.0462	0.0165	0.9585
49.8329	-0.0012669	3.4414	0.13254	-1.202	-0.1662	3.628	-24.9408	768.8506	-64.3407	296.7276	78.1375	816.1824	-0.0592	0.0182	-0.0073	-0.0462	0.0165	0.9585
49.8447	-0.0090406	3.7407	0.13501	-1.2914	-0.1613	3.9562	-23.3492	765.8974	-62.9541	295.6931	75.78	808.6545	-0.0592	0.0182	-0.0073	-0.0462	0.0165	0.9585
49.8566	-0.054886	3.932	0.13766	-1.3449	-0.17205	4.1913	-21.0761	762.0605	-61.4667	294.4522	73.0857	799.9953	-0.0592	0.0182	-0.0073	-0.0462	0.0165	0.9585
49.8684	-0.098865	4.0146	0.14907	-1.367	-0.20013	4.3009	-18.2265	758.1124	-59.8857	293.287	70.0893	791.0283	-0.0592	0.0182	-0.0073	-0.0462	0.0165	0.9585
49.8803	-0.18381	4.0066	0.17398	-1.3602	-0.26582	4.3225	-14.9138	754.786	-58.2514	292.4462	66.861	782.5437	-0.0592	0.0182	-0.0073	-0.0462	0.0165	0.9585
49.8921	-0.28639	3.8612	0.20804	-1.3108	-0.35951	4.1739	-11.2866	752.6099	-56.6887	292.0862	63.5605	775.1355	-0.0592	0.0182	-0.0073	-0.0462	0.0165	0.9585
49.904	-0.44336	3.5445	0.26349	-1.2016	-0.50021	3.8385	-7.4797	751.8685	-55.3284	292.2663	60.3527	769.1515	-0.0592	0.0182	-0.0073	-0.0462	0.0165	0.9585
49.9159	-0.63127	2.9582	0.32952	-0.99794	-0.6656	3.169	-3.6364	752.6065	-54.3023	292.9549	57.405	764.695	-0.0592	0.0182	-0.0073	-0.0462	0.0165	0.9585
